<svg xmlns="http://www.w3.org/2000/svg" enable-background="new 0 0 512 512" viewBox="0 0 512 512" id="djembe">
  <g>
    <g>
      <path fill="#dc5461" d="M355.913,351.751c-5.111-2.1-10.952,0.339-13.052,5.446l-33.167,80.679
			c-48.135-87.495-45.081-82.14-45.98-83.23c-4.418-5.379-12.851-4.67-16.34,1.313c-0.392,0.671-34.314,62.367-45.069,81.917
			l-33.167-80.679c-2.1-5.106-7.94-7.548-13.052-5.446c-5.107,2.1-7.546,7.943-5.446,13.052l41.11,100
			c1.539,3.743,5.187,6.197,9.251,6.197c3.631,0,6.996-1.974,8.76-5.181L256,381.75l46.238,84.069
			c1.861,3.385,5.499,5.383,9.325,5.165c3.844-0.218,7.222-2.621,8.686-6.182l41.11-100
			C363.459,359.694,361.021,353.851,355.913,351.751z"></path>
      <g>
        <path fill="#283954" d="M401 53.674V38c0-20.402-16.598-37-37-37h-26.54c-5.522 0-10 4.478-10 10s4.478 10 10 10H364c9.374 0 17 7.626 17 17v13H131V38c0-9.374 7.626-17 17-17h149.46c5.522 0 10-4.478 10-10s-4.478-10-10-10H148c-20.401 0-37 16.599-37 37v15.674c-17.473 6.299-30 23.04-30 42.656V121c0 5.522 4.478 10 10 10s10-4.478 10-10V96.33C101 82.363 112.363 71 126.33 71H161v50c0 5.522 4.478 10 10 10s10-4.478 10-10V71h65v50c0 5.522 4.478 10 10 10s10-4.478 10-10V71h65v50c0 5.522 4.478 10 10 10s10-4.478 10-10V71h34.67C399.637 71 411 82.363 411 96.33V121c0 5.522 4.478 10 10 10s10-4.478 10-10V96.33C431 76.714 418.473 59.973 401 53.674zM124.894 245.437c-13.465-26.921-21.284-55.449-23.348-85.149-.383-5.51-5.136-9.685-10.669-9.282-5.509.383-9.665 5.159-9.282 10.669 2.185 31.459 10.373 62.652 25.412 92.71 1.752 3.503 5.283 5.528 8.951 5.528C123.307 259.912 128.241 252.129 124.894 245.437zM421.124 151.005c-5.521-.393-10.288 3.772-10.67 9.281-4.055 58.271-30.028 111.645-73.257 150.714h-51.546c36.7-39.424 60.745-91.709 64.754-149.325.384-5.51-3.772-10.287-9.281-10.67-5.511-.393-10.287 3.772-10.67 9.281-3.771 54.198-26.512 104.155-64.454 142.311V161c0-5.522-4.478-10-10-10s-10 4.478-10 10v141.597c-37.942-38.156-60.683-88.113-64.454-142.311-.382-5.509-5.149-9.682-10.67-9.281-5.509.383-9.665 5.16-9.281 10.67 4.008 57.611 28.05 109.898 64.754 149.325h-51.544c-11.014-9.966-21.055-21.05-29.883-32.994-3.284-4.44-9.545-5.38-13.986-2.097-4.441 3.282-5.38 9.544-2.098 13.985 9.165 12.398 19.531 23.945 30.869 34.398l-48.342 174.03C109.598 504.682 114.382 511 121 511h270c6.6 0 11.407-6.3 9.635-12.677l-48.341-174.029c44.948-41.391 73.699-99.193 78.112-162.62C430.789 156.165 426.633 151.388 421.124 151.005zM167.49 371H344.51l22.222 80H145.267L167.49 371zM333.399 331l5.556 20h-165.91l5.556-20H333.399zM134.156 491l5.556-20h232.576l5.556 20H134.156z"></path>
      </g>
      <path fill="#dc5461" d="M91 111c-16.542 0-30 13.458-30 30s13.458 30 30 30 30-13.458 30-30S107.542 111 91 111zM91 151c-5.514 0-10-4.486-10-10s4.486-10 10-10 10 4.486 10 10S96.514 151 91 151zM201 141c0-16.542-13.458-30-30-30s-30 13.458-30 30 13.458 30 30 30S201 157.542 201 141zM161 141c0-5.514 4.486-10 10-10s10 4.486 10 10-4.486 10-10 10S161 146.514 161 141zM256 171c16.542 0 30-13.458 30-30s-13.458-30-30-30-30 13.458-30 30S239.458 171 256 171zM256 131c5.514 0 10 4.486 10 10s-4.486 10-10 10-10-4.486-10-10S250.486 131 256 131zM341 111c-16.542 0-30 13.458-30 30s13.458 30 30 30 30-13.458 30-30S357.542 111 341 111zM341 151c-5.514 0-10-4.486-10-10s4.486-10 10-10 10 4.486 10 10S346.514 151 341 151zM421 111c-16.542 0-30 13.458-30 30s13.458 30 30 30 30-13.458 30-30S437.542 111 421 111zM421 151c-5.514 0-10-4.486-10-10s4.486-10 10-10 10 4.486 10 10S426.514 151 421 151z"></path>
    </g>
  </g>
</svg>
